<svg xmlns="http://www.w3.org/2000/svg" viewBox="0 0 154 200.18" fill="currentColor" aria-hidden="true"><path d="M48.59 195.44C48.32 195.13 47.71 194.26 47.25 193.50C46.40 192.11 43.76 187.99 42.86 186.65C42.60 186.24 42.08 185.40 41.72 184.77C39.56 181.01 39.08 180.38 38.35 180.29C37.95 180.24 37.29 180.37 36.88 180.58C36.02 181.00 34.18 181.85 33.25 182.24C32.91 182.38 32.46 182.60 32.25 182.73C32.05 182.86 31.31 183.20 30.63 183.49C29.94 183.79 28.93 184.24 28.38 184.49C27.83 184.75 27.13 185.03 26.84 185.12C26.54 185.20 26.16 185.43 25.99 185.63C25.83 185.84 25.47 186.00 25.21 186.00C24.94 186.00 24.31 186.22 23.80 186.49C23.29 186.76 21.37 187.61 19.53 188.39C16.51 189.67 16.05 189.80 14.80 189.69C13.55 189.59 13.32 189.47 12.34 188.43C11.35 187.39 11.25 187.16 11.25 186.02C11.25 185.33 11.41 184.34 11.61 183.82C12.11 182.47 13.00 179.47 13.00 179.11C13.00 178.94 13.22 178.31 13.50 177.71C13.77 177.12 13.99 176.27 14.00 175.84C14.00 175.41 14.17 174.92 14.37 174.76C14.57 174.59 14.81 174.04 14.89 173.54C14.97 173.04 15.19 172.23 15.37 171.75C15.90 170.37 16.50 168.49 16.86 167.04C17.05 166.31 17.32 165.58 17.47 165.43C17.63 165.27 17.75 164.90 17.75 164.60C17.75 164.29 17.96 163.44 18.22 162.71C18.48 161.98 18.87 160.76 19.08 160.00C19.30 159.24 19.89 157.28 20.38 155.63C20.88 153.98 21.52 151.84 21.79 150.88C22.07 149.91 22.46 148.70 22.65 148.18C22.84 147.66 23.00 147.02 23.00 146.74C23.00 146.47 23.23 145.83 23.50 145.32C23.78 144.80 24.01 144.10 24.01 143.75C24.02 143.41 24.24 142.68 24.50 142.13C24.77 141.58 24.99 140.92 24.99 140.67C25.00 140.42 25.13 139.97 25.30 139.67C25.46 139.37 25.73 138.56 25.90 137.88C26.23 136.55 26.53 135.64 27.28 133.62C27.54 132.93 27.75 132.20 27.75 132.00C27.75 131.80 27.97 131.07 28.23 130.38C28.49 129.69 29.29 127.10 30.00 124.63C30.72 122.15 31.46 119.67 31.65 119.11C31.85 118.56 32.03 117.66 32.07 117.11L32.13 116.13L30.50 115.98C29.61 115.89 28.27 115.64 27.52 115.41C26.77 115.19 25.84 115.00 25.46 115.00C25.07 115.00 24.33 114.78 23.82 114.50C23.30 114.23 22.75 114.00 22.58 114.00C22.11 114.00 20.23 112.65 19.22 111.58C17.08 109.33 16.39 107.39 16.39 103.63C16.39 100.88 16.90 96.80 17.39 95.63C17.59 95.15 17.75 94.28 17.75 93.70C17.76 93.11 17.92 92.07 18.13 91.40C18.69 89.57 18.61 87.81 17.90 86.36C17.33 85.18 16.09 83.87 10.67 78.73C8.43 76.61 6.32 74.09 5.56 72.63C5.01 71.56 4.00 68.43 4.00 67.77C4.00 67.23 4.99 63.71 5.28 63.25C5.40 63.04 5.64 62.59 5.81 62.25C6.46 60.90 9.14 57.92 13.13 54.11C17.95 49.51 18.52 48.66 18.47 46.19C18.45 45.33 18.33 44.34 18.19 44.00C18.06 43.66 17.86 42.70 17.75 41.88C17.64 41.05 17.38 39.48 17.16 38.38C16.10 32.95 16.00 31.02 16.66 28.46C18.07 22.92 22.13 20.34 30.75 19.48C35.95 18.96 38.40 18.53 39.63 17.92C40.76 17.36 42.00 16.12 42.00 15.55C42.00 15.43 42.23 15.12 42.50 14.88C42.78 14.63 43.00 14.23 43.00 13.99C43.00 13.76 43.23 13.28 43.50 12.93C43.78 12.58 44.00 12.07 44.00 11.79C44.00 11.51 44.12 11.21 44.25 11.12C44.39 11.04 44.85 10.22 45.27 9.30C46.12 7.43 46.83 6.02 47.56 4.81L48.04 4.00L60.44 4.00C70.79 4.00 72.90 4.06 73.23 4.35C73.45 4.55 74.39 4.91 75.31 5.16C76.94 5.59 77.07 5.59 78.69 5.16C79.62 4.91 80.55 4.55 80.77 4.35C81.10 4.06 83.22 4.00 93.56 4.00L105.96 4.00L106.45 4.81C107.17 6.02 107.89 7.43 108.74 9.30C109.15 10.22 109.61 11.04 109.75 11.12C109.89 11.21 110.00 11.51 110.00 11.79C110.00 12.07 110.23 12.58 110.50 12.93C110.78 13.28 111.00 13.76 111.00 13.99C111.00 14.23 111.23 14.63 111.50 14.88C111.78 15.12 112.00 15.43 112.00 15.55C112.00 16.12 113.25 17.36 114.38 17.92C115.61 18.53 118.06 18.96 123.25 19.48C131.88 20.34 135.94 22.92 137.35 28.46C138.00 31.02 137.90 32.95 136.84 38.38C136.63 39.48 136.36 41.05 136.25 41.88C136.15 42.70 135.95 43.66 135.81 44.00C135.68 44.34 135.55 45.33 135.53 46.19C135.48 48.66 136.05 49.51 140.87 54.11C144.86 57.92 147.54 60.90 148.20 62.25C148.36 62.59 148.60 63.04 148.73 63.25C149.01 63.71 150.00 67.23 150.00 67.77C150.00 68.43 149.00 71.56 148.44 72.63C147.68 74.09 145.57 76.61 143.34 78.73C137.92 83.87 136.67 85.18 136.10 86.36C135.40 87.81 135.32 89.57 135.87 91.40C136.08 92.07 136.25 93.11 136.25 93.70C136.25 94.28 136.41 95.15 136.61 95.63C137.10 96.80 137.61 100.88 137.61 103.63C137.61 107.39 136.92 109.33 134.79 111.58C133.78 112.65 131.89 114.00 131.42 114.00C131.26 114.00 130.70 114.23 130.19 114.50C129.67 114.78 128.94 115.00 128.55 115.00C128.16 115.00 127.23 115.19 126.48 115.41C125.74 115.64 124.40 115.89 123.50 115.98L121.88 116.13L121.94 117.11C121.97 117.66 122.16 118.56 122.35 119.11C122.55 119.67 123.29 122.15 124.00 124.63C124.71 127.10 125.51 129.69 125.77 130.38C126.04 131.07 126.25 131.80 126.25 132.00C126.25 132.20 126.46 132.93 126.72 133.62C127.48 135.64 127.77 136.55 128.10 137.88C128.27 138.56 128.54 139.37 128.71 139.67C128.87 139.97 129.01 140.42 129.01 140.67C129.02 140.92 129.24 141.58 129.50 142.13C129.77 142.68 129.99 143.41 129.99 143.75C130.00 144.10 130.23 144.80 130.50 145.32C130.78 145.83 131.00 146.47 131.00 146.74C131.00 147.02 131.16 147.66 131.35 148.18C131.54 148.70 131.93 149.91 132.21 150.88C132.49 151.84 133.12 153.98 133.62 155.63C134.12 157.28 134.70 159.24 134.92 160.00C135.14 160.76 135.53 161.98 135.78 162.71C136.04 163.44 136.25 164.29 136.25 164.60C136.25 164.90 136.38 165.27 136.53 165.43C136.68 165.58 136.96 166.31 137.14 167.04C137.51 168.49 138.10 170.37 138.63 171.75C138.82 172.23 139.04 173.04 139.12 173.54C139.20 174.04 139.43 174.59 139.63 174.76C139.84 174.92 140.00 175.41 140.01 175.84C140.01 176.27 140.24 177.12 140.51 177.71C140.78 178.31 141.00 178.94 141.00 179.11C141.00 179.47 141.89 182.47 142.40 183.82C142.59 184.34 142.75 185.33 142.75 186.02C142.75 187.16 142.65 187.39 141.67 188.43C140.68 189.47 140.45 189.59 139.20 189.69C137.95 189.80 137.50 189.67 134.47 188.39C132.63 187.61 130.71 186.76 130.20 186.49C129.69 186.22 129.06 186.00 128.80 186.00C128.53 186.00 128.18 185.84 128.01 185.63C127.84 185.43 127.46 185.20 127.17 185.12C126.87 185.03 126.18 184.75 125.63 184.49C125.08 184.24 124.06 183.79 123.38 183.49C122.69 183.20 121.96 182.86 121.75 182.73C121.55 182.60 121.10 182.38 120.75 182.24C119.83 181.85 117.98 181.00 117.13 180.58C116.71 180.37 116.05 180.24 115.65 180.29C114.92 180.38 114.44 181.01 112.28 184.77C111.92 185.40 111.41 186.24 111.14 186.65C110.24 187.99 107.61 192.11 106.76 193.50C105.11 196.18 105.61 196.00 99.94 196.00C94.77 196.00 94.00 195.87 94.00 194.98C94.00 194.70 93.79 193.94 93.54 193.30C93.28 192.65 92.82 191.28 92.51 190.25C92.20 189.22 91.74 187.81 91.50 187.13C91.25 186.44 90.99 185.59 90.92 185.25C90.86 184.91 90.68 184.29 90.54 183.88C90.39 183.46 90.04 182.34 89.77 181.38C89.33 179.86 88.71 177.77 87.09 172.38C86.88 171.69 86.60 170.79 86.45 170.38C86.31 169.96 86.08 169.18 85.94 168.63C85.80 168.08 85.48 167.06 85.24 166.38C85.01 165.69 84.67 164.73 84.51 164.25C84.34 163.77 84.09 162.87 83.95 162.25C83.80 161.63 83.53 160.90 83.34 160.63C83.16 160.36 83.00 159.85 82.99 159.51C82.99 159.16 82.77 158.43 82.50 157.88C82.24 157.33 82.02 156.59 82.01 156.25C82.01 155.90 81.78 155.20 81.50 154.68C81.23 154.17 81.00 153.56 81.00 153.33C81.00 153.10 80.79 152.23 80.52 151.39C80.07 149.96 78.83 145.85 77.90 142.69C77.58 141.59 77.36 141.25 77.00 141.25C76.64 141.25 76.43 141.59 76.10 142.69C75.18 145.85 73.94 149.96 73.48 151.39C73.22 152.23 73.00 153.10 73.00 153.33C73.00 153.56 72.78 154.17 72.50 154.68C72.23 155.20 72.00 155.90 71.99 156.25C71.99 156.59 71.77 157.33 71.50 157.88C71.24 158.43 71.02 159.16 71.01 159.51C71.01 159.85 70.85 160.36 70.66 160.63C70.47 160.90 70.20 161.63 70.06 162.25C69.92 162.87 69.66 163.77 69.50 164.25C69.33 164.73 69.00 165.69 68.76 166.38C68.52 167.06 68.21 168.08 68.07 168.63C67.92 169.18 67.69 169.96 67.55 170.38C67.41 170.79 67.12 171.69 66.92 172.38C65.30 177.77 64.67 179.86 64.24 181.38C63.96 182.34 63.61 183.46 63.47 183.88C63.32 184.29 63.15 184.91 63.08 185.25C63.01 185.59 62.75 186.44 62.51 187.13C62.26 187.81 61.80 189.22 61.49 190.25C61.18 191.28 60.72 192.65 60.47 193.30C60.21 193.94 60.00 194.70 60.00 194.98C60.00 195.87 59.23 196.00 54.06 196.00C49.22 196.00 49.08 195.99 48.59 195.44ZM54.48 186.00C54.81 184.97 55.21 183.73 55.38 183.25C55.55 182.77 55.94 181.53 56.25 180.50C56.56 179.47 56.96 178.18 57.14 177.63C57.66 175.97 59.25 170.75 59.78 168.88C60.06 167.91 60.40 166.79 60.54 166.38C60.68 165.96 60.93 165.06 61.10 164.38C61.27 163.69 61.54 162.88 61.71 162.58C61.87 162.28 62.01 161.77 62.01 161.45C62.02 161.14 62.24 160.43 62.50 159.88C62.77 159.33 62.99 158.62 62.99 158.30C63.00 157.99 63.23 157.29 63.50 156.75C63.78 156.21 64.00 155.54 64.00 155.27C64.00 154.99 64.16 154.40 64.36 153.95C64.81 152.90 65.46 150.91 65.77 149.63C65.90 149.08 66.16 148.23 66.35 147.75C66.76 146.68 67.38 144.67 69.01 139.13C69.70 136.79 70.39 134.46 70.54 133.96C70.69 133.45 70.75 132.86 70.67 132.65C70.54 132.31 70.40 132.33 69.57 132.80C69.05 133.09 68.46 133.48 68.25 133.65C68.05 133.82 66.62 134.59 65.09 135.36C59.82 138.01 55.61 138.17 52.13 135.86C51.37 135.36 50.33 134.47 49.81 133.88C48.87 132.82 46.33 128.51 45.91 127.27C45.79 126.91 45.54 126.46 45.36 126.25C45.19 126.04 44.96 125.57 44.87 125.20C44.78 124.83 44.55 124.39 44.35 124.23C44.16 124.07 44.00 123.74 44.00 123.50C44.00 123.26 43.78 122.78 43.50 122.43C43.23 122.08 43.00 121.67 43.00 121.52C43.00 121.13 41.55 118.60 41.11 118.24C40.58 117.79 40.19 118.24 39.66 119.92C39.40 120.72 39.00 121.99 38.75 122.75C38.15 124.62 37.38 127.22 34.47 137.13C34.18 138.09 33.74 139.44 33.48 140.13C33.22 140.82 33.00 141.61 33.00 141.88C33.00 142.15 32.83 142.69 32.63 143.07C32.43 143.46 32.20 144.19 32.11 144.70C32.02 145.21 31.80 145.85 31.63 146.13C31.46 146.41 31.20 147.14 31.05 147.75C30.78 148.89 30.23 150.64 29.64 152.25C29.46 152.73 29.20 153.58 29.06 154.13C28.92 154.68 28.11 157.38 27.27 160.13C26.43 162.88 25.56 165.74 25.34 166.50C25.12 167.26 24.73 168.48 24.47 169.21C24.21 169.94 24.00 170.76 24.00 171.03C24.00 171.30 23.78 171.96 23.50 172.50C23.23 173.04 23.00 173.77 23.00 174.13C23.00 174.48 22.78 175.21 22.50 175.75C21.99 176.75 21.84 178.12 22.20 178.35C22.32 178.41 23.06 178.14 23.86 177.74C24.67 177.33 25.46 177.00 25.63 177.00C25.80 177.00 26.22 176.78 26.57 176.50C26.92 176.23 27.39 176.00 27.62 176.00C27.84 176.00 28.44 175.78 28.95 175.50C29.46 175.23 30.44 174.77 31.13 174.49C31.81 174.20 32.71 173.82 33.13 173.63C39.67 170.68 41.00 170.44 42.75 171.91C43.59 172.62 44.20 173.51 47.19 178.46C48.24 180.20 49.37 182.02 49.68 182.50C50.00 182.98 50.37 183.54 50.50 183.75C50.63 183.96 51.25 184.89 51.87 185.83C52.49 186.77 53.00 187.63 53.00 187.75C53.00 188.02 53.59 188.24 53.76 188.03C53.84 187.95 54.16 187.03 54.48 186.00ZM101.00 187.74C101.00 187.63 101.51 186.77 102.13 185.83C102.75 184.89 103.37 183.96 103.50 183.75C103.63 183.54 104.00 182.98 104.32 182.50C104.64 182.02 105.76 180.20 106.81 178.46C109.81 173.51 110.42 172.62 111.26 171.91C113.00 170.44 114.33 170.68 120.88 173.63C121.29 173.82 122.19 174.20 122.88 174.49C123.56 174.77 124.54 175.23 125.05 175.50C125.56 175.78 126.16 176.00 126.39 176.00C126.61 176.00 127.08 176.23 127.43 176.50C127.78 176.78 128.21 177.00 128.38 177.00C128.54 177.00 129.34 177.33 130.14 177.74C130.94 178.14 131.69 178.41 131.80 178.35C132.17 178.12 132.01 176.75 131.50 175.75C131.23 175.21 131.00 174.48 131.00 174.13C131.00 173.77 130.78 173.04 130.50 172.50C130.23 171.96 130.00 171.30 130.00 171.03C130.00 170.76 129.79 169.94 129.53 169.21C129.28 168.48 128.88 167.26 128.66 166.50C128.44 165.74 127.57 162.88 126.73 160.13C125.89 157.38 125.09 154.68 124.95 154.13C124.80 153.58 124.54 152.73 124.37 152.25C123.77 150.64 123.22 148.89 122.95 147.75C122.81 147.14 122.54 146.41 122.37 146.13C122.20 145.85 121.98 145.21 121.90 144.70C121.81 144.19 121.57 143.46 121.37 143.07C121.17 142.69 121.00 142.15 121.00 141.88C121.00 141.61 120.79 140.82 120.53 140.13C120.26 139.44 119.82 138.09 119.54 137.13C116.63 127.22 115.85 124.62 115.25 122.75C115.01 121.99 114.60 120.72 114.35 119.92C113.82 118.24 113.43 117.79 112.89 118.24C112.46 118.60 111.00 121.13 111.00 121.52C111.00 121.67 110.78 122.08 110.50 122.43C110.23 122.78 110.00 123.26 110.00 123.50C110.00 123.74 109.84 124.07 109.65 124.23C109.46 124.39 109.22 124.83 109.13 125.20C109.04 125.57 108.82 126.04 108.64 126.25C108.46 126.46 108.22 126.91 108.10 127.27C107.67 128.51 105.13 132.82 104.20 133.88C100.49 138.08 95.33 138.59 88.91 135.36C87.38 134.59 85.96 133.82 85.75 133.65C85.55 133.48 84.95 133.09 84.43 132.80C83.60 132.33 83.46 132.31 83.33 132.65C83.25 132.86 83.31 133.45 83.46 133.96C83.62 134.46 84.30 136.79 84.99 139.13C86.62 144.67 87.25 146.68 87.66 147.75C87.84 148.23 88.10 149.08 88.23 149.63C88.54 150.91 89.19 152.90 89.65 153.95C89.84 154.40 90.00 154.99 90.00 155.27C90.00 155.54 90.23 156.21 90.50 156.75C90.78 157.29 91.01 157.99 91.01 158.30C91.02 158.62 91.24 159.33 91.50 159.88C91.77 160.43 91.99 161.14 91.99 161.45C92.00 161.77 92.13 162.28 92.30 162.58C92.46 162.88 92.73 163.69 92.90 164.38C93.07 165.06 93.32 165.96 93.46 166.38C93.60 166.79 93.94 167.91 94.22 168.88C94.76 170.75 96.34 175.97 96.87 177.63C97.04 178.18 97.44 179.47 97.75 180.50C98.07 181.53 98.46 182.77 98.62 183.25C98.88 184.00 99.85 186.99 100.14 187.93C100.24 188.26 101.00 188.09 101.00 187.74ZM59.50 129.17C60.97 128.56 61.25 128.41 66.38 125.49C67.99 124.57 69.59 123.78 71.73 122.85C72.20 122.64 73.57 122.30 74.79 122.09C76.77 121.75 77.23 121.75 79.21 122.09C80.43 122.30 81.81 122.64 82.28 122.85C84.42 123.78 86.01 124.57 87.63 125.49C92.76 128.41 93.04 128.56 94.50 129.17C96.17 129.87 96.41 129.88 97.42 129.26C98.15 128.82 100.00 126.31 100.00 125.77C100.00 125.64 100.44 124.66 100.99 123.58C101.53 122.51 102.50 120.56 103.14 119.25C104.82 115.81 105.63 114.54 107.09 113.04C108.48 111.60 111.39 109.75 112.25 109.75C112.54 109.75 113.13 109.57 113.56 109.35C113.99 109.12 115.19 108.86 116.23 108.75C120.81 108.30 124.97 107.71 126.04 107.37C126.67 107.17 127.36 107.00 127.56 107.00C128.15 107.00 129.28 105.99 129.63 105.15C130.05 104.12 129.77 101.56 128.63 95.88C127.33 89.42 127.47 86.09 129.21 82.50C130.03 80.81 130.62 80.12 135.29 75.50C140.48 70.35 141.81 68.75 141.81 67.67C141.81 66.55 140.39 64.83 135.12 59.63C130.48 55.03 129.72 54.17 129.07 52.75C127.47 49.28 127.37 46.23 128.63 39.50C128.83 38.47 129.10 36.89 129.25 36.00C129.40 35.11 129.63 33.71 129.76 32.91C130.35 29.32 128.92 28.07 123.57 27.50C111.29 26.20 108.71 25.14 105.38 20.00C104.08 17.98 103.52 16.94 101.01 11.71C99.87 9.34 98.64 7.16 98.16 6.65C96.67 5.06 95.23 5.42 89.13 8.88C84.94 11.25 83.52 12.00 83.18 12.00C83.01 12.00 82.48 12.21 82.00 12.46C80.49 13.26 77.33 13.61 74.94 13.24C73.81 13.07 72.48 12.72 72.01 12.46C71.53 12.21 70.99 12.00 70.82 12.00C70.48 12.00 69.06 11.25 64.87 8.88C58.77 5.42 57.34 5.06 55.84 6.65C55.37 7.15 54.12 9.36 52.98 11.71C50.33 17.20 49.87 18.07 48.62 20.00C45.29 25.14 42.71 26.20 30.43 27.50C25.08 28.07 23.65 29.32 24.24 32.91C24.38 33.71 24.61 35.11 24.75 36.00C24.90 36.89 25.18 38.47 25.37 39.50C26.63 46.23 26.53 49.28 24.94 52.75C24.28 54.17 23.52 55.03 18.88 59.63C13.62 64.83 12.19 66.55 12.19 67.67C12.19 68.75 13.52 70.35 18.72 75.50C23.38 80.12 23.98 80.81 24.80 82.50C26.53 86.09 26.68 89.42 25.38 95.88C24.23 101.56 23.95 104.12 24.37 105.15C24.72 105.99 25.85 107.00 26.44 107.00C26.64 107.00 27.33 107.17 27.97 107.37C29.04 107.71 33.19 108.30 37.77 108.75C38.81 108.86 40.02 109.12 40.45 109.35C40.88 109.57 41.47 109.75 41.76 109.75C42.62 109.75 45.52 111.60 46.92 113.04C48.37 114.54 49.18 115.81 50.87 119.25C51.51 120.56 52.48 122.51 53.02 123.58C53.56 124.66 54.00 125.64 54.00 125.77C54.00 126.31 55.86 128.82 56.58 129.26C57.59 129.88 57.83 129.87 59.50 129.17ZM71.88 113.63C71.19 113.44 69.78 113.21 68.75 113.11C67.72 113.02 66.74 112.83 66.58 112.70C66.41 112.57 65.62 112.31 64.83 112.13C60.87 111.25 53.48 107.76 49.88 105.08C47.32 103.17 42.78 98.74 40.70 96.11C38.66 93.53 34.01 85.39 34.00 84.40C34.00 84.25 33.83 83.80 33.62 83.40C33.42 83.01 33.08 81.99 32.87 81.15C32.66 80.31 32.19 78.44 31.83 77.00C31.20 74.51 31.17 74.05 31.16 67.75C31.14 62.26 31.22 60.80 31.58 59.25C32.52 55.26 33.06 53.34 33.52 52.35C33.79 51.78 34.00 51.16 34.00 50.96C34.00 50.42 36.14 46.19 37.71 43.63C41.63 37.23 45.84 32.92 52.25 28.71C55.09 26.85 60.77 24.00 61.63 24.00C61.84 24.00 62.42 23.78 62.94 23.50C63.45 23.23 64.22 23.00 64.64 23.00C65.07 23.00 65.91 22.84 66.52 22.64C68.68 21.94 71.88 21.63 77.00 21.63C82.12 21.63 85.32 21.94 87.48 22.64C88.09 22.84 88.94 23.00 89.36 23.00C89.79 23.00 90.55 23.23 91.07 23.50C91.58 23.78 92.17 24.00 92.37 24.00C93.23 24.00 98.92 26.85 101.75 28.71C108.16 32.92 112.37 37.23 116.29 43.63C117.86 46.19 120.00 50.42 120.00 50.96C120.00 51.16 120.22 51.78 120.48 52.35C120.94 53.34 121.48 55.26 122.42 59.25C122.79 60.80 122.86 62.26 122.85 67.75C122.83 74.05 122.80 74.51 122.17 77.00C121.81 78.44 121.35 80.31 121.14 81.15C120.93 81.99 120.59 83.01 120.38 83.40C120.17 83.80 120.00 84.25 120.00 84.40C120.00 85.39 115.34 93.53 113.30 96.11C111.22 98.74 106.68 103.17 104.13 105.08C100.53 107.76 93.14 111.25 89.18 112.13C88.38 112.31 87.59 112.57 87.43 112.70C87.26 112.83 86.28 113.02 85.25 113.11C84.22 113.21 82.76 113.45 82.01 113.65C80.22 114.11 73.62 114.10 71.88 113.63ZM80.38 105.76C84.52 105.26 88.14 104.43 89.83 103.60C90.22 103.41 90.67 103.25 90.83 103.24C91.00 103.24 91.58 103.02 92.13 102.75C92.68 102.48 93.23 102.26 93.35 102.26C93.77 102.24 98.14 99.65 99.38 98.68C103.63 95.35 108.00 90.52 109.58 87.40C109.96 86.66 110.43 85.91 110.63 85.74C110.84 85.58 111.00 85.18 111.00 84.86C111.00 84.54 111.12 84.20 111.27 84.11C111.79 83.79 113.18 80.20 114.01 77.04C114.28 76.04 114.54 75.13 114.60 75.04C114.66 74.94 114.84 73.06 115.00 70.87C115.23 67.57 115.21 66.27 114.90 63.38C114.47 59.33 113.47 55.42 112.37 53.46C112.17 53.10 112.00 52.63 112.00 52.43C112.00 52.23 111.78 51.78 111.50 51.43C111.23 51.08 111.00 50.66 111.00 50.50C111.00 50.33 110.38 49.14 109.62 47.85C106.67 42.83 101.84 38.00 96.62 34.82C94.56 33.57 88.87 31.00 88.15 31.00C87.94 31.00 87.40 30.84 86.95 30.65C82.91 28.91 71.10 28.91 67.06 30.65C66.60 30.84 66.06 31.00 65.85 31.00C65.14 31.00 59.44 33.57 57.38 34.82C52.16 38.00 47.34 42.83 44.39 47.85C43.62 49.14 43.00 50.33 43.00 50.50C43.00 50.66 42.78 51.08 42.50 51.43C42.23 51.78 42.00 52.23 42.00 52.43C42.00 52.63 41.83 53.10 41.63 53.46C40.54 55.42 39.54 59.33 39.10 63.38C38.79 66.27 38.77 67.57 39.01 70.87C39.16 73.06 39.34 74.94 39.40 75.04C39.46 75.13 39.73 76.04 39.99 77.04C40.82 80.20 42.22 83.79 42.73 84.11C42.88 84.20 43.00 84.52 43.00 84.81C43.00 85.10 43.18 85.53 43.40 85.78C43.62 86.02 44.11 86.81 44.49 87.52C47.58 93.37 55.56 100.35 61.88 102.75C62.70 103.06 63.71 103.46 64.13 103.63C68.34 105.38 75.63 106.33 80.38 105.76ZM47.66 71.24C45.99 70.74 45.00 69.03 45.00 66.63C45.00 64.60 46.02 59.47 46.88 57.13C47.24 56.16 47.60 55.15 47.68 54.88C47.76 54.60 47.91 54.26 48.01 54.13C48.11 53.99 48.64 53.02 49.19 51.98C50.53 49.41 51.52 48.05 53.88 45.56C56.56 42.73 59.28 40.74 62.75 39.09C64.33 38.33 65.95 37.55 66.33 37.36C66.72 37.16 67.26 37.00 67.52 37.00C67.78 37.00 68.65 36.78 69.44 36.52C71.39 35.86 76.47 35.42 77.92 35.79C79.52 36.19 81.00 37.96 81.00 39.47C81.00 40.37 80.83 40.78 80.10 41.68C78.85 43.20 79.00 43.15 72.46 44.00C71.54 44.12 70.45 44.39 70.04 44.61C69.62 44.82 69.09 45.00 68.87 45.00C68.13 45.00 63.91 47.28 62.33 48.53C60.13 50.29 57.63 53.06 56.47 55.05C55.32 57.03 54.00 60.14 54.00 60.91C54.00 61.20 53.82 61.87 53.60 62.41C53.35 62.99 53.14 64.42 53.06 66.00C52.94 68.51 52.90 68.68 52.07 69.81C51.60 70.47 50.96 71.05 50.67 71.11C49.26 71.40 48.32 71.44 47.66 71.24Z"/></svg>
