<svg viewBox="0 0 1200 360" xmlns="http://www.w3.org/2000/svg" preserveAspectRatio="xMidYMax meet" role="img" aria-label="Skyline">
<rect x="0" y="271" width="75" height="89" fill="#dde2ea"/><rect x="77" y="281" width="58" height="79" fill="#dde2ea"/><rect x="142" y="244" width="61" height="116" fill="#dde2ea"/><rect x="211" y="226" width="58" height="134" fill="#dde2ea"/><rect x="265" y="279" width="57" height="81" fill="#dde2ea"/><rect x="325" y="282" width="81" height="78" fill="#dde2ea"/><rect x="403" y="220" width="60" height="140" fill="#dde2ea"/><rect x="466" y="218" width="58" height="142" fill="#dde2ea"/><rect x="517" y="210" width="69" height="150" fill="#dde2ea"/><rect x="594" y="217" width="58" height="143" fill="#dde2ea"/><rect x="660" y="284" width="80" height="76" fill="#dde2ea"/><rect x="737" y="219" width="57" height="141" fill="#dde2ea"/><rect x="788" y="237" width="73" height="123" fill="#dde2ea"/><rect x="855" y="275" width="89" height="85" fill="#dde2ea"/><rect x="952" y="219" width="74" height="141" fill="#dde2ea"/><rect x="1021" y="216" width="61" height="144" fill="#dde2ea"/><rect x="1090" y="266" width="95" height="94" fill="#dde2ea"/><rect x="1186" y="220" width="61" height="140" fill="#dde2ea"/><rect x="-10" y="235" width="96" height="125" fill="#c4cbd6"/><rect x="-2" y="259" width="7" height="10" rx="1" fill="#eef1f6"/><rect x="-2" y="281" width="7" height="10" rx="1" fill="#eef1f6"/><rect x="-2" y="303" width="7" height="10" rx="1" fill="#eef1f6"/><rect x="-2" y="325" width="7" height="10" rx="1" fill="#eef1f6"/><rect x="14" y="259" width="7" height="10" rx="1" fill="#eef1f6"/><rect x="14" y="281" width="7" height="10" rx="1" fill="#eef1f6"/><rect x="14" y="303" width="7" height="10" rx="1" fill="#eef1f6"/><rect x="30" y="281" width="7" height="10" rx="1" fill="#eef1f6"/><rect x="30" y="325" width="7" height="10" rx="1" fill="#eef1f6"/><rect x="46" y="259" width="7" height="10" rx="1" fill="#eef1f6"/><rect x="46" y="281" width="7" height="10" rx="1" fill="#eef1f6"/><rect x="46" y="303" width="7" height="10" rx="1" fill="#eef1f6"/><rect x="46" y="325" width="7" height="10" rx="1" fill="#eef1f6"/><rect x="62" y="281" width="7" height="10" rx="1" fill="#eef1f6"/><rect x="62" y="325" width="7" height="10" rx="1" fill="#eef1f6"/><rect x="78" y="259" width="7" height="10" rx="1" fill="#eef1f6"/><rect x="78" y="281" width="7" height="10" rx="1" fill="#eef1f6"/><rect x="78" y="303" width="7" height="10" rx="1" fill="#eef1f6"/><rect x="102" y="161" width="81" height="199" fill="#c4cbd6"/><rect x="110" y="185" width="7" height="10" rx="1" fill="#eef1f6"/><rect x="110" y="207" width="7" height="10" rx="1" fill="#eef1f6"/><rect x="110" y="229" width="7" height="10" rx="1" fill="#eef1f6"/><rect x="110" y="251" width="7" height="10" rx="1" fill="#eef1f6"/><rect x="110" y="273" width="7" height="10" rx="1" fill="#eef1f6"/><rect x="110" y="295" width="7" height="10" rx="1" fill="#eef1f6"/><rect x="110" y="317" width="7" height="10" rx="1" fill="#eef1f6"/><rect x="126" y="207" width="7" height="10" rx="1" fill="#eef1f6"/><rect x="126" y="229" width="7" height="10" rx="1" fill="#eef1f6"/><rect x="126" y="251" width="7" height="10" rx="1" fill="#eef1f6"/><rect x="126" y="273" width="7" height="10" rx="1" fill="#eef1f6"/><rect x="126" y="295" width="7" height="10" rx="1" fill="#eef1f6"/><rect x="126" y="317" width="7" height="10" rx="1" fill="#eef1f6"/><rect x="142" y="185" width="7" height="10" rx="1" fill="#eef1f6"/><rect x="142" y="229" width="7" height="10" rx="1" fill="#eef1f6"/><rect x="142" y="317" width="7" height="10" rx="1" fill="#eef1f6"/><rect x="158" y="229" width="7" height="10" rx="1" fill="#eef1f6"/><rect x="158" y="251" width="7" height="10" rx="1" fill="#eef1f6"/><rect x="158" y="295" width="7" height="10" rx="1" fill="#eef1f6"/><rect x="158" y="317" width="7" height="10" rx="1" fill="#eef1f6"/><rect x="174" y="185" width="7" height="10" rx="1" fill="#eef1f6"/><rect x="174" y="207" width="7" height="10" rx="1" fill="#eef1f6"/><rect x="174" y="229" width="7" height="10" rx="1" fill="#eef1f6"/><rect x="174" y="251" width="7" height="10" rx="1" fill="#eef1f6"/><rect x="174" y="273" width="7" height="10" rx="1" fill="#eef1f6"/><rect x="174" y="295" width="7" height="10" rx="1" fill="#eef1f6"/><rect x="174" y="317" width="7" height="10" rx="1" fill="#eef1f6"/><rect x="196" y="211" width="69" height="149" fill="#c4cbd6"/><rect x="211" y="189" width="39" height="34" fill="#c4cbd6"/><rect x="204" y="279" width="7" height="10" rx="1" fill="#eef1f6"/><rect x="204" y="301" width="7" height="10" rx="1" fill="#eef1f6"/><rect x="204" y="323" width="7" height="10" rx="1" fill="#eef1f6"/><rect x="220" y="235" width="7" height="10" rx="1" fill="#eef1f6"/><rect x="220" y="257" width="7" height="10" rx="1" fill="#eef1f6"/><rect x="220" y="279" width="7" height="10" rx="1" fill="#eef1f6"/><rect x="220" y="301" width="7" height="10" rx="1" fill="#eef1f6"/><rect x="220" y="323" width="7" height="10" rx="1" fill="#eef1f6"/><rect x="236" y="213" width="7" height="10" rx="1" fill="#eef1f6"/><rect x="236" y="235" width="7" height="10" rx="1" fill="#eef1f6"/><rect x="236" y="257" width="7" height="10" rx="1" fill="#eef1f6"/><rect x="236" y="301" width="7" height="10" rx="1" fill="#eef1f6"/><rect x="236" y="323" width="7" height="10" rx="1" fill="#eef1f6"/><rect x="252" y="213" width="7" height="10" rx="1" fill="#eef1f6"/><rect x="252" y="235" width="7" height="10" rx="1" fill="#eef1f6"/><rect x="252" y="257" width="7" height="10" rx="1" fill="#eef1f6"/><rect x="252" y="279" width="7" height="10" rx="1" fill="#eef1f6"/><rect x="252" y="323" width="7" height="10" rx="1" fill="#eef1f6"/><rect x="272" y="233" width="72" height="127" fill="#c4cbd6"/><rect x="280" y="257" width="7" height="10" rx="1" fill="#eef1f6"/><rect x="280" y="279" width="7" height="10" rx="1" fill="#eef1f6"/><rect x="280" y="323" width="7" height="10" rx="1" fill="#eef1f6"/><rect x="296" y="279" width="7" height="10" rx="1" fill="#eef1f6"/><rect x="296" y="301" width="7" height="10" rx="1" fill="#eef1f6"/><rect x="296" y="323" width="7" height="10" rx="1" fill="#eef1f6"/><rect x="312" y="257" width="7" height="10" rx="1" fill="#eef1f6"/><rect x="312" y="323" width="7" height="10" rx="1" fill="#eef1f6"/><rect x="328" y="257" width="7" height="10" rx="1" fill="#eef1f6"/><rect x="328" y="279" width="7" height="10" rx="1" fill="#eef1f6"/><rect x="328" y="301" width="7" height="10" rx="1" fill="#eef1f6"/><rect x="328" y="323" width="7" height="10" rx="1" fill="#eef1f6"/><rect x="353" y="155" width="91" height="205" fill="#c4cbd6"/><polygon points="353,155 398,131 444,155" fill="#c4cbd6"/><rect x="465" y="131" width="90" height="229" fill="#c4cbd6"/><rect x="508" y="91" width="4" height="40" fill="#c4cbd6"/><circle cx="510" cy="87" r="4" fill="#c4cbd6"/><rect x="563" y="224" width="69" height="136" fill="#c4cbd6"/><rect x="571" y="248" width="7" height="10" rx="1" fill="#eef1f6"/><rect x="571" y="270" width="7" height="10" rx="1" fill="#eef1f6"/><rect x="571" y="292" width="7" height="10" rx="1" fill="#eef1f6"/><rect x="571" y="314" width="7" height="10" rx="1" fill="#eef1f6"/><rect x="587" y="248" width="7" height="10" rx="1" fill="#eef1f6"/><rect x="587" y="292" width="7" height="10" rx="1" fill="#eef1f6"/><rect x="587" y="314" width="7" height="10" rx="1" fill="#eef1f6"/><rect x="603" y="248" width="7" height="10" rx="1" fill="#eef1f6"/><rect x="603" y="270" width="7" height="10" rx="1" fill="#eef1f6"/><rect x="603" y="292" width="7" height="10" rx="1" fill="#eef1f6"/><rect x="603" y="314" width="7" height="10" rx="1" fill="#eef1f6"/><rect x="619" y="248" width="7" height="10" rx="1" fill="#eef1f6"/><rect x="619" y="292" width="7" height="10" rx="1" fill="#eef1f6"/><rect x="619" y="314" width="7" height="10" rx="1" fill="#eef1f6"/><rect x="643" y="193" width="82" height="167" fill="#c4cbd6"/><path d="M643,193 a41,41 0 0 1 82,0 Z" fill="#c4cbd6"/><rect x="747" y="193" width="81" height="167" fill="#c4cbd6"/><rect x="755" y="217" width="7" height="10" rx="1" fill="#eef1f6"/><rect x="755" y="239" width="7" height="10" rx="1" fill="#eef1f6"/><rect x="755" y="261" width="7" height="10" rx="1" fill="#eef1f6"/><rect x="755" y="327" width="7" height="10" rx="1" fill="#eef1f6"/><rect x="771" y="217" width="7" height="10" rx="1" fill="#eef1f6"/><rect x="771" y="261" width="7" height="10" rx="1" fill="#eef1f6"/><rect x="771" y="283" width="7" height="10" rx="1" fill="#eef1f6"/><rect x="771" y="305" width="7" height="10" rx="1" fill="#eef1f6"/><rect x="771" y="327" width="7" height="10" rx="1" fill="#eef1f6"/><rect x="787" y="217" width="7" height="10" rx="1" fill="#eef1f6"/><rect x="787" y="261" width="7" height="10" rx="1" fill="#eef1f6"/><rect x="787" y="283" width="7" height="10" rx="1" fill="#eef1f6"/><rect x="787" y="305" width="7" height="10" rx="1" fill="#eef1f6"/><rect x="787" y="327" width="7" height="10" rx="1" fill="#eef1f6"/><rect x="803" y="217" width="7" height="10" rx="1" fill="#eef1f6"/><rect x="803" y="239" width="7" height="10" rx="1" fill="#eef1f6"/><rect x="803" y="305" width="7" height="10" rx="1" fill="#eef1f6"/><rect x="803" y="327" width="7" height="10" rx="1" fill="#eef1f6"/><rect x="819" y="217" width="7" height="10" rx="1" fill="#eef1f6"/><rect x="819" y="239" width="7" height="10" rx="1" fill="#eef1f6"/><rect x="819" y="261" width="7" height="10" rx="1" fill="#eef1f6"/><rect x="819" y="305" width="7" height="10" rx="1" fill="#eef1f6"/><rect x="819" y="327" width="7" height="10" rx="1" fill="#eef1f6"/><rect x="836" y="202" width="102" height="158" fill="#c4cbd6"/><rect x="858" y="180" width="57" height="34" fill="#c4cbd6"/><rect x="844" y="204" width="7" height="10" rx="1" fill="#eef1f6"/><rect x="844" y="226" width="7" height="10" rx="1" fill="#eef1f6"/><rect x="844" y="248" width="7" height="10" rx="1" fill="#eef1f6"/><rect x="844" y="270" width="7" height="10" rx="1" fill="#eef1f6"/><rect x="844" y="314" width="7" height="10" rx="1" fill="#eef1f6"/><rect x="860" y="204" width="7" height="10" rx="1" fill="#eef1f6"/><rect x="860" y="226" width="7" height="10" rx="1" fill="#eef1f6"/><rect x="860" y="248" width="7" height="10" rx="1" fill="#eef1f6"/><rect x="860" y="270" width="7" height="10" rx="1" fill="#eef1f6"/><rect x="860" y="292" width="7" height="10" rx="1" fill="#eef1f6"/><rect x="860" y="314" width="7" height="10" rx="1" fill="#eef1f6"/><rect x="876" y="204" width="7" height="10" rx="1" fill="#eef1f6"/><rect x="876" y="292" width="7" height="10" rx="1" fill="#eef1f6"/><rect x="876" y="314" width="7" height="10" rx="1" fill="#eef1f6"/><rect x="892" y="226" width="7" height="10" rx="1" fill="#eef1f6"/><rect x="892" y="248" width="7" height="10" rx="1" fill="#eef1f6"/><rect x="892" y="270" width="7" height="10" rx="1" fill="#eef1f6"/><rect x="892" y="292" width="7" height="10" rx="1" fill="#eef1f6"/><rect x="892" y="314" width="7" height="10" rx="1" fill="#eef1f6"/><rect x="908" y="248" width="7" height="10" rx="1" fill="#eef1f6"/><rect x="908" y="270" width="7" height="10" rx="1" fill="#eef1f6"/><rect x="908" y="292" width="7" height="10" rx="1" fill="#eef1f6"/><rect x="908" y="314" width="7" height="10" rx="1" fill="#eef1f6"/><rect x="924" y="204" width="7" height="10" rx="1" fill="#eef1f6"/><rect x="924" y="226" width="7" height="10" rx="1" fill="#eef1f6"/><rect x="924" y="248" width="7" height="10" rx="1" fill="#eef1f6"/><rect x="924" y="292" width="7" height="10" rx="1" fill="#eef1f6"/><rect x="924" y="314" width="7" height="10" rx="1" fill="#eef1f6"/><rect x="951" y="167" width="108" height="193" fill="#c4cbd6"/><rect x="959" y="191" width="7" height="10" rx="1" fill="#eef1f6"/><rect x="959" y="213" width="7" height="10" rx="1" fill="#eef1f6"/><rect x="959" y="257" width="7" height="10" rx="1" fill="#eef1f6"/><rect x="959" y="279" width="7" height="10" rx="1" fill="#eef1f6"/><rect x="959" y="301" width="7" height="10" rx="1" fill="#eef1f6"/><rect x="959" y="323" width="7" height="10" rx="1" fill="#eef1f6"/><rect x="975" y="191" width="7" height="10" rx="1" fill="#eef1f6"/><rect x="975" y="213" width="7" height="10" rx="1" fill="#eef1f6"/><rect x="975" y="235" width="7" height="10" rx="1" fill="#eef1f6"/><rect x="975" y="257" width="7" height="10" rx="1" fill="#eef1f6"/><rect x="975" y="279" width="7" height="10" rx="1" fill="#eef1f6"/><rect x="975" y="301" width="7" height="10" rx="1" fill="#eef1f6"/><rect x="991" y="191" width="7" height="10" rx="1" fill="#eef1f6"/><rect x="991" y="257" width="7" height="10" rx="1" fill="#eef1f6"/><rect x="991" y="301" width="7" height="10" rx="1" fill="#eef1f6"/><rect x="991" y="323" width="7" height="10" rx="1" fill="#eef1f6"/><rect x="1007" y="191" width="7" height="10" rx="1" fill="#eef1f6"/><rect x="1007" y="213" width="7" height="10" rx="1" fill="#eef1f6"/><rect x="1007" y="235" width="7" height="10" rx="1" fill="#eef1f6"/><rect x="1007" y="257" width="7" height="10" rx="1" fill="#eef1f6"/><rect x="1007" y="279" width="7" height="10" rx="1" fill="#eef1f6"/><rect x="1007" y="323" width="7" height="10" rx="1" fill="#eef1f6"/><rect x="1023" y="213" width="7" height="10" rx="1" fill="#eef1f6"/><rect x="1023" y="235" width="7" height="10" rx="1" fill="#eef1f6"/><rect x="1023" y="257" width="7" height="10" rx="1" fill="#eef1f6"/><rect x="1023" y="279" width="7" height="10" rx="1" fill="#eef1f6"/><rect x="1023" y="301" width="7" height="10" rx="1" fill="#eef1f6"/><rect x="1023" y="323" width="7" height="10" rx="1" fill="#eef1f6"/><rect x="1039" y="191" width="7" height="10" rx="1" fill="#eef1f6"/><rect x="1039" y="213" width="7" height="10" rx="1" fill="#eef1f6"/><rect x="1039" y="235" width="7" height="10" rx="1" fill="#eef1f6"/><rect x="1039" y="257" width="7" height="10" rx="1" fill="#eef1f6"/><rect x="1039" y="279" width="7" height="10" rx="1" fill="#eef1f6"/><rect x="1039" y="301" width="7" height="10" rx="1" fill="#eef1f6"/><rect x="1039" y="323" width="7" height="10" rx="1" fill="#eef1f6"/><rect x="1080" y="147" width="92" height="213" fill="#c4cbd6"/><rect x="1124" y="107" width="4" height="40" fill="#c4cbd6"/><circle cx="1126" cy="103" r="4" fill="#c4cbd6"/><rect x="1194" y="199" width="76" height="161" fill="#c4cbd6"/><rect x="1202" y="223" width="7" height="10" rx="1" fill="#eef1f6"/><rect x="1202" y="289" width="7" height="10" rx="1" fill="#eef1f6"/><rect x="1218" y="267" width="7" height="10" rx="1" fill="#eef1f6"/><rect x="1218" y="289" width="7" height="10" rx="1" fill="#eef1f6"/><rect x="1218" y="311" width="7" height="10" rx="1" fill="#eef1f6"/><rect x="1234" y="245" width="7" height="10" rx="1" fill="#eef1f6"/><rect x="1234" y="267" width="7" height="10" rx="1" fill="#eef1f6"/><rect x="1234" y="311" width="7" height="10" rx="1" fill="#eef1f6"/><rect x="1250" y="223" width="7" height="10" rx="1" fill="#eef1f6"/><rect x="1250" y="267" width="7" height="10" rx="1" fill="#eef1f6"/><rect x="1250" y="289" width="7" height="10" rx="1" fill="#eef1f6"/><rect x="1250" y="311" width="7" height="10" rx="1" fill="#eef1f6"/>
</svg>