<svg viewBox="0 0 600 230" xmlns="http://www.w3.org/2000/svg" preserveAspectRatio="xMidYMax meet" role="img" aria-label="Skyline">
<g fill="#dde2ea">
<rect x="6" y="80" width="44" height="150"/>
<rect x="54" y="42" width="34" height="188"/>
<rect x="92" y="110" width="40" height="120"/>
<rect x="134" y="0" width="30" height="230"/>
<rect x="168" y="70" width="46" height="160"/>
<rect x="218" y="25" width="36" height="205"/>
<rect x="258" y="98" width="52" height="132"/>
<rect x="312" y="0" width="34" height="230"/>
<rect x="352" y="62" width="42" height="168"/>
<rect x="396" y="34" width="30" height="196"/>
<rect x="430" y="104" width="50" height="126"/>
<rect x="482" y="8" width="34" height="222"/>
<rect x="522" y="80" width="40" height="150"/>
<rect x="566" y="48" width="30" height="182"/>
</g>
<g fill="#eef1f6">
<rect x="14" y="90" width="5" height="6"/>
<rect x="14" y="106" width="5" height="6"/>
<rect x="14" y="138" width="5" height="6"/>
<rect x="14" y="154" width="5" height="6"/>
<rect x="14" y="170" width="5" height="6"/>
<rect x="14" y="186" width="5" height="6"/>
<rect x="14" y="202" width="5" height="6"/>
<rect x="26" y="90" width="5" height="6"/>
<rect x="26" y="106" width="5" height="6"/>
<rect x="26" y="122" width="5" height="6"/>
<rect x="26" y="138" width="5" height="6"/>
<rect x="26" y="154" width="5" height="6"/>
<rect x="26" y="170" width="5" height="6"/>
<rect x="26" y="186" width="5" height="6"/>
<rect x="26" y="202" width="5" height="6"/>
<rect x="62" y="84" width="5" height="6"/>
<rect x="62" y="100" width="5" height="6"/>
<rect x="62" y="116" width="5" height="6"/>
<rect x="62" y="132" width="5" height="6"/>
<rect x="62" y="148" width="5" height="6"/>
<rect x="62" y="164" width="5" height="6"/>
<rect x="62" y="180" width="5" height="6"/>
<rect x="62" y="196" width="5" height="6"/>
<rect x="74" y="52" width="5" height="6"/>
<rect x="74" y="68" width="5" height="6"/>
<rect x="74" y="84" width="5" height="6"/>
<rect x="74" y="116" width="5" height="6"/>
<rect x="74" y="132" width="5" height="6"/>
<rect x="74" y="148" width="5" height="6"/>
<rect x="74" y="164" width="5" height="6"/>
<rect x="74" y="180" width="5" height="6"/>
<rect x="74" y="196" width="5" height="6"/>
<rect x="100" y="168" width="5" height="6"/>
<rect x="100" y="184" width="5" height="6"/>
<rect x="100" y="200" width="5" height="6"/>
<rect x="112" y="120" width="5" height="6"/>
<rect x="112" y="136" width="5" height="6"/>
<rect x="112" y="152" width="5" height="6"/>
<rect x="112" y="168" width="5" height="6"/>
<rect x="112" y="200" width="5" height="6"/>
<rect x="142" y="42" width="5" height="6"/>
<rect x="142" y="58" width="5" height="6"/>
<rect x="142" y="90" width="5" height="6"/>
<rect x="142" y="122" width="5" height="6"/>
<rect x="142" y="138" width="5" height="6"/>
<rect x="142" y="154" width="5" height="6"/>
<rect x="142" y="170" width="5" height="6"/>
<rect x="142" y="186" width="5" height="6"/>
<rect x="142" y="202" width="5" height="6"/>
<rect x="176" y="80" width="5" height="6"/>
<rect x="176" y="112" width="5" height="6"/>
<rect x="176" y="128" width="5" height="6"/>
<rect x="176" y="144" width="5" height="6"/>
<rect x="176" y="160" width="5" height="6"/>
<rect x="176" y="176" width="5" height="6"/>
<rect x="176" y="192" width="5" height="6"/>
<rect x="176" y="208" width="5" height="6"/>
<rect x="188" y="80" width="5" height="6"/>
<rect x="188" y="96" width="5" height="6"/>
<rect x="188" y="112" width="5" height="6"/>
<rect x="188" y="128" width="5" height="6"/>
<rect x="188" y="144" width="5" height="6"/>
<rect x="188" y="160" width="5" height="6"/>
<rect x="188" y="176" width="5" height="6"/>
<rect x="188" y="192" width="5" height="6"/>
<rect x="188" y="208" width="5" height="6"/>
<rect x="200" y="80" width="5" height="6"/>
<rect x="200" y="112" width="5" height="6"/>
<rect x="200" y="128" width="5" height="6"/>
<rect x="200" y="160" width="5" height="6"/>
<rect x="200" y="176" width="5" height="6"/>
<rect x="200" y="208" width="5" height="6"/>
<rect x="226" y="35" width="5" height="6"/>
<rect x="226" y="67" width="5" height="6"/>
<rect x="226" y="83" width="5" height="6"/>
<rect x="226" y="99" width="5" height="6"/>
<rect x="226" y="115" width="5" height="6"/>
<rect x="226" y="131" width="5" height="6"/>
<rect x="226" y="147" width="5" height="6"/>
<rect x="226" y="163" width="5" height="6"/>
<rect x="226" y="179" width="5" height="6"/>
<rect x="226" y="195" width="5" height="6"/>
<rect x="238" y="35" width="5" height="6"/>
<rect x="238" y="51" width="5" height="6"/>
<rect x="238" y="67" width="5" height="6"/>
<rect x="238" y="99" width="5" height="6"/>
<rect x="238" y="115" width="5" height="6"/>
<rect x="238" y="147" width="5" height="6"/>
<rect x="238" y="163" width="5" height="6"/>
<rect x="238" y="195" width="5" height="6"/>
<rect x="266" y="108" width="5" height="6"/>
<rect x="266" y="124" width="5" height="6"/>
<rect x="266" y="140" width="5" height="6"/>
<rect x="266" y="172" width="5" height="6"/>
<rect x="278" y="108" width="5" height="6"/>
<rect x="278" y="124" width="5" height="6"/>
<rect x="278" y="140" width="5" height="6"/>
<rect x="278" y="156" width="5" height="6"/>
<rect x="278" y="188" width="5" height="6"/>
<rect x="278" y="204" width="5" height="6"/>
<rect x="290" y="108" width="5" height="6"/>
<rect x="290" y="140" width="5" height="6"/>
<rect x="290" y="156" width="5" height="6"/>
<rect x="290" y="172" width="5" height="6"/>
<rect x="290" y="188" width="5" height="6"/>
<rect x="290" y="204" width="5" height="6"/>
<rect x="320" y="10" width="5" height="6"/>
<rect x="320" y="26" width="5" height="6"/>
<rect x="320" y="58" width="5" height="6"/>
<rect x="320" y="74" width="5" height="6"/>
<rect x="320" y="106" width="5" height="6"/>
<rect x="320" y="122" width="5" height="6"/>
<rect x="320" y="138" width="5" height="6"/>
<rect x="320" y="154" width="5" height="6"/>
<rect x="320" y="170" width="5" height="6"/>
<rect x="320" y="186" width="5" height="6"/>
<rect x="320" y="202" width="5" height="6"/>
<rect x="332" y="10" width="5" height="6"/>
<rect x="332" y="26" width="5" height="6"/>
<rect x="332" y="42" width="5" height="6"/>
<rect x="332" y="90" width="5" height="6"/>
<rect x="332" y="106" width="5" height="6"/>
<rect x="332" y="122" width="5" height="6"/>
<rect x="332" y="138" width="5" height="6"/>
<rect x="332" y="154" width="5" height="6"/>
<rect x="332" y="170" width="5" height="6"/>
<rect x="332" y="202" width="5" height="6"/>
<rect x="360" y="88" width="5" height="6"/>
<rect x="360" y="104" width="5" height="6"/>
<rect x="360" y="120" width="5" height="6"/>
<rect x="360" y="136" width="5" height="6"/>
<rect x="360" y="152" width="5" height="6"/>
<rect x="360" y="184" width="5" height="6"/>
<rect x="360" y="200" width="5" height="6"/>
<rect x="372" y="72" width="5" height="6"/>
<rect x="372" y="104" width="5" height="6"/>
<rect x="372" y="120" width="5" height="6"/>
<rect x="372" y="136" width="5" height="6"/>
<rect x="372" y="168" width="5" height="6"/>
<rect x="372" y="184" width="5" height="6"/>
<rect x="404" y="60" width="5" height="6"/>
<rect x="404" y="76" width="5" height="6"/>
<rect x="404" y="108" width="5" height="6"/>
<rect x="404" y="124" width="5" height="6"/>
<rect x="404" y="140" width="5" height="6"/>
<rect x="404" y="156" width="5" height="6"/>
<rect x="404" y="172" width="5" height="6"/>
<rect x="404" y="188" width="5" height="6"/>
<rect x="404" y="204" width="5" height="6"/>
<rect x="438" y="146" width="5" height="6"/>
<rect x="438" y="162" width="5" height="6"/>
<rect x="438" y="178" width="5" height="6"/>
<rect x="438" y="194" width="5" height="6"/>
<rect x="450" y="114" width="5" height="6"/>
<rect x="450" y="146" width="5" height="6"/>
<rect x="450" y="162" width="5" height="6"/>
<rect x="450" y="178" width="5" height="6"/>
<rect x="450" y="194" width="5" height="6"/>
<rect x="462" y="114" width="5" height="6"/>
<rect x="462" y="130" width="5" height="6"/>
<rect x="462" y="146" width="5" height="6"/>
<rect x="462" y="162" width="5" height="6"/>
<rect x="462" y="178" width="5" height="6"/>
<rect x="490" y="18" width="5" height="6"/>
<rect x="490" y="34" width="5" height="6"/>
<rect x="490" y="50" width="5" height="6"/>
<rect x="490" y="66" width="5" height="6"/>
<rect x="490" y="82" width="5" height="6"/>
<rect x="490" y="98" width="5" height="6"/>
<rect x="490" y="130" width="5" height="6"/>
<rect x="490" y="146" width="5" height="6"/>
<rect x="490" y="178" width="5" height="6"/>
<rect x="490" y="194" width="5" height="6"/>
<rect x="502" y="18" width="5" height="6"/>
<rect x="502" y="34" width="5" height="6"/>
<rect x="502" y="50" width="5" height="6"/>
<rect x="502" y="98" width="5" height="6"/>
<rect x="502" y="114" width="5" height="6"/>
<rect x="502" y="130" width="5" height="6"/>
<rect x="502" y="146" width="5" height="6"/>
<rect x="502" y="162" width="5" height="6"/>
<rect x="530" y="90" width="5" height="6"/>
<rect x="530" y="122" width="5" height="6"/>
<rect x="530" y="138" width="5" height="6"/>
<rect x="530" y="154" width="5" height="6"/>
<rect x="530" y="170" width="5" height="6"/>
<rect x="530" y="186" width="5" height="6"/>
<rect x="530" y="202" width="5" height="6"/>
<rect x="542" y="90" width="5" height="6"/>
<rect x="542" y="106" width="5" height="6"/>
<rect x="542" y="122" width="5" height="6"/>
<rect x="542" y="170" width="5" height="6"/>
<rect x="542" y="186" width="5" height="6"/>
<rect x="542" y="202" width="5" height="6"/>
<rect x="574" y="74" width="5" height="6"/>
<rect x="574" y="90" width="5" height="6"/>
<rect x="574" y="106" width="5" height="6"/>
<rect x="574" y="122" width="5" height="6"/>
<rect x="574" y="138" width="5" height="6"/>
<rect x="574" y="154" width="5" height="6"/>
<rect x="574" y="170" width="5" height="6"/>
<rect x="574" y="186" width="5" height="6"/>
<rect x="574" y="202" width="5" height="6"/>
</g></svg>